<svg width="75" height="74" viewBox="0 0 75 74" fill="none" xmlns="http://www.w3.org/2000/svg">
<rect x="1" y="0.5" width="73" height="73" rx="36.5" fill="#141414"/>
<rect x="1" y="0.5" width="73" height="73" rx="36.5" stroke="#703BF7"/>
<path d="M37.0751 23.9742C37.3463 23.8557 37.6546 23.8557 37.9259 23.9742C43.1942 26.276 48.1873 29.0899 52.8422 32.3527C53.1791 32.5888 53.3494 32.9982 53.2793 33.4036C53.2093 33.809 52.9116 34.1375 52.515 34.247C51.5447 34.5148 50.5828 34.8032 49.6296 35.1107C45.7606 36.3584 42.0362 37.9284 38.488 39.7891L38.4834 39.7915C38.3225 39.8759 38.162 39.9609 38.0018 40.0464C37.689 40.2136 37.3133 40.2136 37.0004 40.0464C36.8387 39.9601 36.6767 39.8743 36.5142 39.7891C34.7598 38.8691 32.9622 38.0201 31.1254 37.246V36.9291C31.1254 36.743 31.2209 36.5779 31.3687 36.4884C33.5009 35.1966 35.7003 34.0047 37.9604 32.9191C38.4893 32.665 38.7122 32.0303 38.4581 31.5013C38.204 30.9724 37.5693 30.7495 37.0403 31.0036C34.7181 32.1191 32.4582 33.3437 30.2676 34.6709C29.6253 35.06 29.1935 35.6969 29.0515 36.4103C27.8403 35.9445 26.6133 35.5105 25.3713 35.11C24.4181 34.8026 23.4562 34.5148 22.4859 34.2469C22.0893 34.1375 21.7916 33.8089 21.7216 33.4036C21.6516 32.9982 21.8219 32.5888 22.1587 32.3527C26.8137 29.0898 31.8067 26.276 37.0751 23.9742Z" fill="#A685FA"/>
<path d="M39.0033 41.9207C42.4583 40.0746 46.0883 38.514 49.8619 37.27C50.0521 39.2743 50.1735 41.2985 50.2238 43.3403C50.2346 43.7783 49.9754 44.1781 49.571 44.3469C45.5319 46.0333 41.69 48.0982 38.0896 50.4975C37.7328 50.7353 37.268 50.7353 36.9112 50.4975C33.3108 48.0982 29.4689 46.0333 25.4298 44.3469C25.0254 44.1781 24.7662 43.7783 24.777 43.3403C24.8273 41.2984 24.9487 39.274 25.1389 37.2695C26.4437 37.6996 27.7312 38.1676 29.0004 38.6721V40.4718C28.3652 40.8392 27.9379 41.5259 27.9379 42.3125C27.9379 43.0142 28.278 43.6365 28.8023 44.0234C28.6755 44.5627 28.4879 45.0903 28.2393 45.5956C28.8806 45.8983 29.5164 46.2107 30.1466 46.5327C30.5055 45.8027 30.7657 45.0366 30.9272 44.2543C31.6701 43.9232 32.1879 43.1783 32.1879 42.3125C32.1879 41.5259 31.7605 40.8392 31.1254 40.4718V39.5584C32.7848 40.2834 34.4104 41.0719 35.999 41.9207C36.9376 42.4222 38.0646 42.4222 39.0033 41.9207Z" fill="#A685FA"/>
<path d="M26.8218 47.5716C27.4156 46.9778 27.8883 46.309 28.2393 45.5956C28.8806 45.8983 29.5164 46.2107 30.1466 46.5327C29.6953 47.4505 29.0877 48.3109 28.3245 49.0742C27.9095 49.4891 27.2368 49.4891 26.8218 49.0742C26.4069 48.6593 26.4069 47.9865 26.8218 47.5716Z" fill="#A685FA"/>
</svg>
