<svg width="1920" height="63" viewBox="0 0 1920 63" fill="none" xmlns="http://www.w3.org/2000/svg">
<g clip-path="url(#clip0_60_3094)">
<mask id="path-1-inside-1_60_3094" fill="white">
<path d="M0 0H1920V63H0V0Z"/>
</mask>
<path d="M0 0H1920V63H0V0Z" fill="#1A1A1A"/>
<g clip-path="url(#clip1_60_3094)">
<g style="mix-blend-mode:color-dodge">
<path d="M0.844238 256.582C62.8911 211.964 131.357 183.966 206.96 211.146C274.275 235.359 326.603 291.611 378.343 338.479C436.656 391.304 510.314 485.091 599.829 466.656C650.213 456.275 694.536 417.717 732.184 384.887C815.28 312.399 888.119 228.43 962.826 147.658C1032.75 72.0252 1110.25 17.6146 1175.46 122.882C1219.38 193.733 1253.47 305.802 1353.06 309.739C1441.45 313.242 1507.87 242.672 1587.54 216.643C1709.74 176.73 1833.71 294.04 1919.05 362.948" stroke="#666666" stroke-miterlimit="10"/>
<path d="M0.844238 231.984C64.5279 182.381 135.475 149.448 215.911 178.034C283.789 202.146 340.005 257.119 390.184 306.543C442.359 357.962 512.386 458.96 597.809 441.726C645.61 432.087 687.656 393.452 722.9 362.105C803.489 290.384 875.459 208.614 948.274 129.274C1014.95 56.6328 1093.26 -9.59073 1159.4 95.1907C1202.68 163.741 1235.54 273.15 1333.27 274.506C1420.89 275.707 1493.96 212.117 1575.78 190.333C1703.12 156.403 1827.57 267.627 1919.03 338.684" stroke="#666666" stroke-miterlimit="10"/>
<path d="M0.844238 204.574C71.1009 149.32 146.064 119.609 231.947 157.962C302.971 189.693 365.171 249.729 420.134 302.887C469.444 350.599 530.544 431.115 608.295 406.032C655.738 390.716 696.992 349.806 732.388 316.924C803.336 251.033 869.27 179.67 936.202 109.765C999.988 43.1067 1077.38 -21.736 1145.95 71.207C1194.72 137.328 1225.77 243.081 1323.14 247.914C1409.87 252.209 1493.73 195.012 1577.34 179.67C1703.78 156.454 1821.38 243.593 1919.05 310.737" stroke="#666666" stroke-miterlimit="10"/>
<path d="M0.844238 174.122C76.3951 116.49 153.378 91.1509 241.64 136.664C309.263 171.514 371.668 227.638 427.295 278.852C479.137 326.59 542.795 408.845 621.134 372.435C662.03 353.437 695.687 317.257 727.81 286.651C795.382 222.217 859.296 153.897 925.281 87.8781C993.543 19.5835 1070.88 -33.3697 1141.7 57.4255C1190.45 119.942 1225.57 218.356 1318 222.447C1403.04 226.232 1487.51 185.5 1570.51 171.949C1698.62 151.033 1812.35 216.336 1919.05 279.261" stroke="#666666" stroke-miterlimit="10"/>
<path d="M0.844238 141.189C87.9809 78.3408 171.102 64.1244 263.891 122.601C330.567 164.61 392.205 221.527 451.873 272.844C501.695 315.697 557.731 382.969 627.451 344.002C664.792 323.138 695.866 285.935 725.611 255.84C788.937 191.739 850.6 126.078 915.767 63.8176C983.287 -0.692762 1060.58 -47.2538 1132.45 34.26C1186.1 95.114 1223.26 192.174 1315.47 200.969C1396.72 208.717 1485.26 176.96 1565.19 164.585C1692.91 144.82 1805.29 189.949 1919 245.05" stroke="#666666" stroke-miterlimit="10"/>
<path d="M0.844238 106.39C95.2445 42.9022 182.049 36.1009 276.654 102.529C348.036 152.644 412.18 215.978 480.058 270.9C526.734 308.64 578.371 360.391 636.709 317.027C675.278 288.364 706.762 245.178 738.782 209.995C792.926 150.547 848.426 91.8922 907.992 37.8395C980.985 -28.4095 1060.14 -59.7059 1133.65 20.1459C1187.46 78.5964 1228.69 169.826 1317.1 179.721C1400.79 189.08 1491.27 167.116 1574.16 155.738C1696.06 139.016 1804.55 166.247 1919.03 208.614" stroke="#666666" stroke-miterlimit="10"/>
<path d="M0.844238 70.261C108.467 2.98918 199.952 10.1485 298.751 89.0031C373.714 148.834 437.602 218.458 515.736 274.915C569.343 313.626 607.988 335.487 656.914 281.537C740.061 189.847 807.402 85.3467 904.82 6.2876C976.33 -51.7283 1055 -73.3596 1126.26 -5.83208C1186.46 51.2122 1226.97 138.786 1313.88 159.343C1394.11 178.29 1494.8 159.599 1575.47 148.604C1694.52 132.368 1801.97 141.905 1919.05 170.747" stroke="#666666" stroke-miterlimit="10"/>
<path d="M0.844238 33.4161C121.357 -36.8728 219.492 -14.0398 321.104 75.9372C393.893 140.396 454.431 215.032 537.041 267.985C597.681 306.876 629.599 313.754 671.083 251.826C736.813 153.718 802.978 53.4366 898.733 -18.9235C976.151 -77.4507 1054.59 -90.5931 1130.25 -23.1168C1193.24 33.0837 1238.07 123.495 1327.15 143.388C1406.16 161.031 1498.36 152.644 1578 141.803C1693.63 126.052 1802.25 118.944 1919.05 131.959" stroke="#666666" stroke-miterlimit="10"/>
<path d="M0.844238 -3.55645C132.201 -76.0443 234.965 -40.3245 339.084 58.8573C412.768 129.044 473.51 214.777 564.228 264.534C631.569 301.481 655.201 282.279 687.324 218.944C738.424 118.228 803.054 16.4384 897.71 -49.1714C977.839 -104.733 1058.89 -106.446 1134.16 -42.6002C1199.81 13.1145 1247.64 101.174 1335.59 125.873C1524.24 178.852 1729.54 99.6653 1919.05 93.0941" stroke="#666666" stroke-miterlimit="10"/>
<path d="M0.844238 -40.0944C66.1904 -74.8937 127.623 -95.5534 200.745 -70.2146C261.231 -49.248 310.772 -5.24394 355.146 39.5784C428.344 113.575 490.927 213.14 588.448 257.119C661.595 290.103 678.91 245.664 703.59 183.659C743.821 82.5086 804.563 -21.1223 899.475 -80.3399C1106.33 -209.437 1180.99 51.7748 1345.57 108.41C1537.77 174.557 1731.1 91.0997 1919.05 54.7152" stroke="#666666" stroke-miterlimit="10"/>
<path d="M0.844238 -75.6096C69.0037 -111.662 131.818 -131.759 206.269 -104.375C268.725 -81.4137 319.212 -34.4948 364.455 13.0378C435.607 87.7758 509.189 217.155 615.328 246.917C689.626 267.755 701.339 198.259 720.163 142.314C753.105 44.3854 809.883 -63.5922 904.872 -115.395C1102.06 -222.938 1201.37 18.8675 1350.25 87.2133C1545.57 176.883 1734.7 84.9376 1919.03 17.4868" stroke="#666666" stroke-miterlimit="10"/>
<path d="M0.844238 -109.489C69.6687 -146.921 131.664 -167.249 207.42 -140.734C270.234 -118.744 321.565 -69.6777 366.22 -21.8638C438.676 55.7378 516.35 203.143 629.011 225.132C705.585 240.09 716.327 163.613 733.053 106.185C761.775 7.66828 813.489 -101.383 912.749 -147.203C1110.22 -238.356 1216.72 -6.21567 1362.37 68.8547C1438.2 107.924 1536.39 127.944 1620.87 114.342C1727.95 97.1084 1825.88 33.6719 1919.05 -17.7984" stroke="#666666" stroke-miterlimit="10"/>
<path d="M0.844238 -141.194C74.1444 -183.562 144.989 -207.98 226.141 -171.365C287.037 -143.879 335.35 -93.3544 379.008 -44.3132C444.431 29.1719 526.887 183.992 636.94 195.6C719.78 204.345 730.24 113.907 747.99 52.8486C775.433 -41.5262 824.845 -142.702 924.309 -179.113C1120.3 -250.884 1233.62 -35.6709 1375.03 48.4253C1446.49 90.9208 1539.89 120.018 1623.47 109.612C1735.45 95.651 1832.35 14.6487 1919 -50.6799" stroke="#666666" stroke-miterlimit="10"/>
<path d="M0.844238 -170.112C70.0523 -214.193 138.186 -244.876 219.952 -211.866C285.477 -185.403 337.652 -129.228 382.665 -76.7347C447.014 -1.68988 527.936 152.388 642.259 155.099C723.769 157.016 738.859 65.2751 758.092 4.01199C787.837 -90.6441 834.871 -182.462 939.194 -209.233C1138.97 -260.524 1249.89 -63.7456 1392.83 30.6548C1462.81 76.8834 1556.13 115.007 1641.38 102.708C1752.86 86.5996 1842.43 -6.03661 1919.03 -80.3399" stroke="#666666" stroke-miterlimit="10"/>
<path d="M0.844238 -195.656C64.3745 -241.705 130.36 -280.289 211.154 -253.237C274.122 -232.168 323.713 -180.57 366.092 -131.631C435.505 -51.4982 505.327 91.0485 624.817 100.151C715.662 107.055 739.268 18.7908 765.407 -51.0379C801.059 -146.308 850.753 -226.978 959.936 -241.731C1153.49 -267.888 1265.03 -101.511 1399.51 3.2193C1466.93 55.7123 1558.21 105.981 1646.42 97.3896C1763.43 85.9859 1849.54 -22.7843 1919.03 -106.165" stroke="#666666" stroke-miterlimit="10"/>
<path d="M0.844238 -215.804C64.0676 -259.91 129.26 -296.218 208.443 -270.445C270.106 -250.373 319.186 -201.051 361.054 -153.595C428.497 -77.1949 499.879 69.4684 615.942 73.4827C705.687 76.5766 736.404 -2.89166 768.578 -72.7459C809.832 -162.263 865.664 -244.211 971.548 -258.504C1158.33 -283.715 1275 -128.282 1407.56 -28.8697C1472.6 19.8903 1564.34 69.4939 1647.87 67.8575C1764.65 65.5563 1851.15 -45.4894 1919.03 -126.543" stroke="#666666" stroke-miterlimit="10"/>
<path d="M0.844238 -229.586C63.0701 -272.158 127.316 -307.469 204.939 -283.996C264.914 -265.868 313.278 -219.69 354.481 -174.485C420.85 -101.639 491.925 43.4904 604.228 44.1808C692.286 44.7177 729.78 -25.3411 768.22 -93.5846C815.177 -176.939 876.815 -256.919 978.939 -270.931C1158.97 -295.605 1280.58 -156.203 1413.22 -63.4132C1477.62 -18.3608 1568.36 31.9077 1648.05 39.0158C1764.24 49.3713 1852.15 -62.774 1919 -140.913" stroke="#666666" stroke-miterlimit="10"/>
<path d="M0.844238 -238.126C60.5381 -278.908 124.35 -314.168 198.903 -295.247C262.459 -279.138 312.946 -231.094 356.22 -184.584C422.001 -113.886 487.961 17.4356 597.86 12.5519C681.007 8.86998 723.386 -54.2341 766.814 -116.341C820.139 -192.639 884.513 -264.18 982.162 -278.039C1159.48 -303.224 1283.7 -182.718 1421.66 -96.7552C1485.39 -57.0211 1566.26 -9.89758 1639.69 9.10013C1758.72 39.8851 1849.36 -71.621 1919.03 -150.373" stroke="#666666" stroke-miterlimit="10"/>
<path d="M0.844238 -242.524C58.9013 -282.692 121.357 -318.719 194.683 -303.812C255.733 -291.386 305.35 -248.635 347.882 -205.704C414.584 -138.407 476.682 -17.5426 583.154 -22.2729C663.922 -25.8525 712.491 -78.9847 761.903 -136.234C821.111 -204.809 889.449 -269.959 983.338 -283.613C1153.16 -308.312 1283.29 -211.969 1422.86 -135.313C1492.12 -97.2665 1564.96 -50.7566 1637.67 -19.9717C1754.73 29.6065 1846.75 -77.6807 1919 -155.947" stroke="#666666" stroke-miterlimit="10"/>
</g>
</g>
<path d="M728.217 39.26H746.217V21.26H728.217V39.26ZM747.297 38V25.4H751.464C752.334 25.4 753.15 25.565 753.912 25.895C754.674 26.219 755.343 26.672 755.919 27.254C756.495 27.83 756.945 28.499 757.269 29.261C757.599 30.017 757.764 30.83 757.764 31.7C757.764 32.57 757.599 33.386 757.269 34.148C756.945 34.904 756.495 35.573 755.919 36.155C755.343 36.731 754.674 37.184 753.912 37.514C753.15 37.838 752.334 38 751.464 38H747.297ZM748.809 36.488H751.464C752.124 36.488 752.742 36.365 753.318 36.119C753.9 35.867 754.41 35.522 754.848 35.084C755.286 34.646 755.628 34.139 755.874 33.563C756.126 32.981 756.252 32.36 756.252 31.7C756.252 31.04 756.126 30.422 755.874 29.846C755.628 29.264 755.283 28.754 754.839 28.316C754.401 27.878 753.894 27.536 753.318 27.29C752.742 27.038 752.124 26.912 751.464 26.912H748.809V36.488ZM759.303 29H760.815V38H759.303V29ZM760.077 27.533C759.837 27.533 759.636 27.455 759.474 27.299C759.312 27.143 759.231 26.948 759.231 26.714C759.231 26.48 759.312 26.285 759.474 26.129C759.636 25.973 759.834 25.895 760.068 25.895C760.302 25.895 760.5 25.973 760.662 26.129C760.824 26.285 760.905 26.48 760.905 26.714C760.905 26.948 760.824 27.143 760.662 27.299C760.506 27.455 760.311 27.533 760.077 27.533ZM765.634 38.171C765.148 38.153 764.674 38.063 764.212 37.901C763.756 37.733 763.354 37.508 763.006 37.226C762.664 36.938 762.415 36.608 762.259 36.236L763.555 35.678C763.645 35.882 763.807 36.074 764.041 36.254C764.275 36.434 764.545 36.578 764.851 36.686C765.157 36.794 765.466 36.848 765.778 36.848C766.108 36.848 766.417 36.797 766.705 36.695C766.993 36.593 767.227 36.443 767.407 36.245C767.593 36.041 767.686 35.798 767.686 35.516C767.686 35.216 767.584 34.982 767.38 34.814C767.182 34.64 766.93 34.505 766.624 34.409C766.324 34.307 766.018 34.211 765.706 34.121C765.088 33.965 764.536 33.779 764.05 33.563C763.564 33.341 763.18 33.062 762.898 32.726C762.622 32.384 762.484 31.949 762.484 31.421C762.484 30.863 762.637 30.38 762.943 29.972C763.255 29.564 763.663 29.249 764.167 29.027C764.671 28.805 765.211 28.694 765.787 28.694C766.513 28.694 767.176 28.85 767.776 29.162C768.376 29.474 768.823 29.897 769.117 30.431L767.902 31.142C767.8 30.926 767.644 30.737 767.434 30.575C767.224 30.407 766.984 30.275 766.714 30.179C766.444 30.083 766.168 30.032 765.886 30.026C765.538 30.014 765.211 30.059 764.905 30.161C764.605 30.263 764.362 30.419 764.176 30.629C763.996 30.833 763.906 31.088 763.906 31.394C763.906 31.694 764.002 31.922 764.194 32.078C764.392 32.234 764.647 32.36 764.959 32.456C765.277 32.546 765.622 32.651 765.994 32.771C766.54 32.945 767.05 33.146 767.524 33.374C767.998 33.602 768.379 33.887 768.667 34.229C768.961 34.571 769.105 34.994 769.099 35.498C769.099 36.05 768.934 36.533 768.604 36.947C768.274 37.355 767.845 37.667 767.317 37.883C766.795 38.099 766.234 38.195 765.634 38.171ZM776.754 35.624L778.104 36.353C777.696 36.923 777.177 37.379 776.547 37.721C775.923 38.063 775.245 38.234 774.513 38.234C773.685 38.234 772.929 38.021 772.245 37.595C771.567 37.169 771.024 36.599 770.616 35.885C770.214 35.165 770.013 34.37 770.013 33.5C770.013 32.84 770.13 32.225 770.364 31.655C770.598 31.079 770.919 30.575 771.327 30.143C771.741 29.705 772.221 29.363 772.767 29.117C773.313 28.871 773.895 28.748 774.513 28.748C775.245 28.748 775.923 28.919 776.547 29.261C777.177 29.603 777.696 30.062 778.104 30.638L776.754 31.367C776.466 31.013 776.124 30.74 775.728 30.548C775.332 30.356 774.927 30.26 774.513 30.26C773.955 30.26 773.448 30.41 772.992 30.71C772.542 31.004 772.185 31.397 771.921 31.889C771.657 32.381 771.525 32.918 771.525 33.5C771.525 34.082 771.657 34.619 771.921 35.111C772.191 35.597 772.551 35.987 773.001 36.281C773.457 36.575 773.961 36.722 774.513 36.722C774.957 36.722 775.374 36.62 775.764 36.416C776.154 36.212 776.484 35.948 776.754 35.624ZM783.53 38.234C782.702 38.234 781.946 38.021 781.262 37.595C780.584 37.169 780.041 36.599 779.633 35.885C779.231 35.165 779.03 34.37 779.03 33.5C779.03 32.84 779.147 32.225 779.381 31.655C779.615 31.079 779.936 30.575 780.344 30.143C780.758 29.705 781.238 29.363 781.784 29.117C782.33 28.871 782.912 28.748 783.53 28.748C784.358 28.748 785.111 28.961 785.789 29.387C786.473 29.813 787.016 30.386 787.418 31.106C787.826 31.826 788.03 32.624 788.03 33.5C788.03 34.154 787.913 34.766 787.679 35.336C787.445 35.906 787.121 36.41 786.707 36.848C786.299 37.28 785.822 37.619 785.276 37.865C784.736 38.111 784.154 38.234 783.53 38.234ZM783.53 36.722C784.094 36.722 784.601 36.575 785.051 36.281C785.507 35.981 785.864 35.588 786.122 35.102C786.386 34.61 786.518 34.076 786.518 33.5C786.518 32.912 786.383 32.372 786.113 31.88C785.849 31.388 785.492 30.995 785.042 30.701C784.592 30.407 784.088 30.26 783.53 30.26C782.966 30.26 782.459 30.41 782.009 30.71C781.559 31.004 781.202 31.397 780.938 31.889C780.674 32.381 780.542 32.918 780.542 33.5C780.542 34.1 780.677 34.646 780.947 35.138C781.217 35.624 781.58 36.011 782.036 36.299C782.492 36.581 782.99 36.722 783.53 36.722ZM793.795 38H791.86L788.575 28.982H790.186L792.823 36.245L795.46 28.982H797.071L793.795 38ZM802.128 38.234C801.3 38.234 800.544 38.021 799.86 37.595C799.182 37.169 798.639 36.599 798.231 35.885C797.829 35.165 797.628 34.37 797.628 33.5C797.628 32.84 797.745 32.225 797.979 31.655C798.213 31.079 798.534 30.575 798.942 30.143C799.356 29.705 799.836 29.363 800.382 29.117C800.928 28.871 801.51 28.748 802.128 28.748C802.806 28.748 803.427 28.886 803.991 29.162C804.561 29.432 805.047 29.81 805.449 30.296C805.857 30.782 806.16 31.346 806.358 31.988C806.562 32.63 806.637 33.317 806.583 34.049H799.239C799.311 34.559 799.479 35.015 799.743 35.417C800.007 35.813 800.343 36.128 800.751 36.362C801.165 36.596 801.624 36.716 802.128 36.722C802.668 36.722 803.157 36.584 803.595 36.308C804.033 36.026 804.387 35.642 804.657 35.156L806.196 35.516C805.836 36.314 805.293 36.968 804.567 37.478C803.841 37.982 803.028 38.234 802.128 38.234ZM799.194 32.861H805.062C805.014 32.357 804.852 31.898 804.576 31.484C804.3 31.064 803.949 30.728 803.523 30.476C803.097 30.224 802.632 30.098 802.128 30.098C801.624 30.098 801.162 30.221 800.742 30.467C800.322 30.713 799.974 31.046 799.698 31.466C799.428 31.88 799.26 32.345 799.194 32.861ZM808.1 38V29H809.612V30.125C809.93 29.705 810.332 29.372 810.818 29.126C811.304 28.874 811.832 28.748 812.402 28.748C812.75 28.748 813.086 28.793 813.41 28.883L812.798 30.395C812.552 30.317 812.312 30.278 812.078 30.278C811.628 30.278 811.214 30.389 810.836 30.611C810.464 30.827 810.167 31.121 809.945 31.493C809.723 31.865 809.612 32.279 809.612 32.735V38H808.1ZM826.72 25.4H828.502L824.236 32.303V38H822.724V32.303L818.458 25.4H820.24L823.48 30.647L826.72 25.4ZM832.52 38.234C831.692 38.234 830.936 38.021 830.252 37.595C829.574 37.169 829.031 36.599 828.623 35.885C828.221 35.165 828.02 34.37 828.02 33.5C828.02 32.84 828.137 32.225 828.371 31.655C828.605 31.079 828.926 30.575 829.334 30.143C829.748 29.705 830.228 29.363 830.774 29.117C831.32 28.871 831.902 28.748 832.52 28.748C833.348 28.748 834.101 28.961 834.779 29.387C835.463 29.813 836.006 30.386 836.408 31.106C836.816 31.826 837.02 32.624 837.02 33.5C837.02 34.154 836.903 34.766 836.669 35.336C836.435 35.906 836.111 36.41 835.697 36.848C835.289 37.28 834.812 37.619 834.266 37.865C833.726 38.111 833.144 38.234 832.52 38.234ZM832.52 36.722C833.084 36.722 833.591 36.575 834.041 36.281C834.497 35.981 834.854 35.588 835.112 35.102C835.376 34.61 835.508 34.076 835.508 33.5C835.508 32.912 835.373 32.372 835.103 31.88C834.839 31.388 834.482 30.995 834.032 30.701C833.582 30.407 833.078 30.26 832.52 30.26C831.956 30.26 831.449 30.41 830.999 30.71C830.549 31.004 830.192 31.397 829.928 31.889C829.664 32.381 829.532 32.918 829.532 33.5C829.532 34.1 829.667 34.646 829.937 35.138C830.207 35.624 830.57 36.011 831.026 36.299C831.482 36.581 831.98 36.722 832.52 36.722ZM838.027 34.58V29H839.539V34.247C839.539 34.703 839.65 35.117 839.872 35.489C840.094 35.861 840.391 36.158 840.763 36.38C841.141 36.596 841.555 36.704 842.005 36.704C842.461 36.704 842.872 36.596 843.238 36.38C843.61 36.158 843.907 35.861 844.129 35.489C844.351 35.117 844.462 34.703 844.462 34.247V29H845.974L845.983 38H844.471L844.462 36.857C844.144 37.277 843.742 37.613 843.256 37.865C842.77 38.111 842.245 38.234 841.681 38.234C841.009 38.234 840.394 38.072 839.836 37.748C839.284 37.418 838.843 36.977 838.513 36.425C838.189 35.873 838.027 35.258 838.027 34.58ZM847.791 38V29H849.303V30.125C849.621 29.705 850.023 29.372 850.509 29.126C850.995 28.874 851.523 28.748 852.093 28.748C852.441 28.748 852.777 28.793 853.101 28.883L852.489 30.395C852.243 30.317 852.003 30.278 851.769 30.278C851.319 30.278 850.905 30.389 850.527 30.611C850.155 30.827 849.858 31.121 849.636 31.493C849.414 31.865 849.303 32.279 849.303 32.735V38H847.791ZM858.689 38V25.4H862.856C863.726 25.4 864.542 25.565 865.304 25.895C866.066 26.219 866.735 26.672 867.311 27.254C867.887 27.83 868.337 28.499 868.661 29.261C868.991 30.017 869.156 30.83 869.156 31.7C869.156 32.57 868.991 33.386 868.661 34.148C868.337 34.904 867.887 35.573 867.311 36.155C866.735 36.731 866.066 37.184 865.304 37.514C864.542 37.838 863.726 38 862.856 38H858.689ZM860.201 36.488H862.856C863.516 36.488 864.134 36.365 864.71 36.119C865.292 35.867 865.802 35.522 866.24 35.084C866.678 34.646 867.02 34.139 867.266 33.563C867.518 32.981 867.644 32.36 867.644 31.7C867.644 31.04 867.518 30.422 867.266 29.846C867.02 29.264 866.675 28.754 866.231 28.316C865.793 27.878 865.286 27.536 864.71 27.29C864.134 27.038 863.516 26.912 862.856 26.912H860.201V36.488ZM870.748 38V29H872.26V30.125C872.578 29.705 872.98 29.372 873.466 29.126C873.952 28.874 874.48 28.748 875.05 28.748C875.398 28.748 875.734 28.793 876.058 28.883L875.446 30.395C875.2 30.317 874.96 30.278 874.726 30.278C874.276 30.278 873.862 30.389 873.484 30.611C873.112 30.827 872.815 31.121 872.593 31.493C872.371 31.865 872.26 32.279 872.26 32.735V38H870.748ZM880.667 38.234C879.839 38.234 879.083 38.021 878.399 37.595C877.721 37.169 877.178 36.599 876.77 35.885C876.368 35.165 876.167 34.37 876.167 33.5C876.167 32.84 876.284 32.225 876.518 31.655C876.752 31.079 877.073 30.575 877.481 30.143C877.895 29.705 878.375 29.363 878.921 29.117C879.467 28.871 880.049 28.748 880.667 28.748C881.345 28.748 881.966 28.886 882.53 29.162C883.1 29.432 883.586 29.81 883.988 30.296C884.396 30.782 884.699 31.346 884.897 31.988C885.101 32.63 885.176 33.317 885.122 34.049H877.778C877.85 34.559 878.018 35.015 878.282 35.417C878.546 35.813 878.882 36.128 879.29 36.362C879.704 36.596 880.163 36.716 880.667 36.722C881.207 36.722 881.696 36.584 882.134 36.308C882.572 36.026 882.926 35.642 883.196 35.156L884.735 35.516C884.375 36.314 883.832 36.968 883.106 37.478C882.38 37.982 881.567 38.234 880.667 38.234ZM877.733 32.861H883.601C883.553 32.357 883.391 31.898 883.115 31.484C882.839 31.064 882.488 30.728 882.062 30.476C881.636 30.224 881.171 30.098 880.667 30.098C880.163 30.098 879.701 30.221 879.281 30.467C878.861 30.713 878.513 31.046 878.237 31.466C877.967 31.88 877.799 32.345 877.733 32.861ZM893.822 29H895.334V38H893.822L893.759 36.479C893.477 37.001 893.087 37.424 892.589 37.748C892.097 38.072 891.509 38.234 890.825 38.234C890.165 38.234 889.547 38.111 888.971 37.865C888.395 37.613 887.885 37.268 887.441 36.83C887.003 36.386 886.661 35.876 886.415 35.3C886.169 34.724 886.046 34.103 886.046 33.437C886.046 32.795 886.166 32.189 886.406 31.619C886.646 31.049 886.979 30.551 887.405 30.125C887.837 29.693 888.335 29.357 888.899 29.117C889.463 28.871 890.069 28.748 890.717 28.748C891.425 28.748 892.046 28.916 892.58 29.252C893.114 29.582 893.546 30.011 893.876 30.539L893.822 29ZM890.798 36.767C891.392 36.767 891.905 36.623 892.337 36.335C892.775 36.041 893.111 35.645 893.345 35.147C893.585 34.649 893.705 34.1 893.705 33.5C893.705 32.888 893.585 32.336 893.345 31.844C893.105 31.346 892.766 30.953 892.328 30.665C891.896 30.371 891.386 30.224 890.798 30.224C890.204 30.224 889.664 30.371 889.178 30.665C888.692 30.959 888.305 31.355 888.017 31.853C887.735 32.345 887.594 32.894 887.594 33.5C887.594 34.106 887.741 34.658 888.035 35.156C888.329 35.648 888.719 36.041 889.205 36.335C889.691 36.623 890.222 36.767 890.798 36.767ZM897.133 38V29H898.645V30.125C898.963 29.705 899.362 29.372 899.842 29.126C900.328 28.874 900.856 28.748 901.426 28.748C902.092 28.748 902.701 28.91 903.253 29.234C903.805 29.558 904.24 29.987 904.558 30.521C904.876 29.987 905.308 29.558 905.854 29.234C906.406 28.91 907.012 28.748 907.672 28.748C908.35 28.748 908.965 28.913 909.517 29.243C910.069 29.567 910.507 30.005 910.831 30.557C911.161 31.109 911.326 31.724 911.326 32.402V38H909.814V32.762C909.814 32.318 909.706 31.907 909.49 31.529C909.274 31.151 908.983 30.848 908.617 30.62C908.251 30.392 907.846 30.278 907.402 30.278C906.958 30.278 906.553 30.386 906.187 30.602C905.821 30.812 905.53 31.106 905.314 31.484C905.098 31.856 904.99 32.282 904.99 32.762V38H903.478V32.762C903.478 32.282 903.37 31.856 903.154 31.484C902.938 31.106 902.644 30.812 902.272 30.602C901.906 30.386 901.501 30.278 901.057 30.278C900.619 30.278 900.214 30.392 899.842 30.62C899.476 30.848 899.185 31.151 898.969 31.529C898.753 31.907 898.645 32.318 898.645 32.762V38H897.133ZM917.453 38V25.4H921.611C922.289 25.4 922.898 25.565 923.438 25.895C923.984 26.225 924.416 26.672 924.734 27.236C925.058 27.794 925.22 28.418 925.22 29.108C925.22 29.81 925.055 30.443 924.725 31.007C924.401 31.565 923.963 32.009 923.411 32.339C922.865 32.663 922.265 32.825 921.611 32.825H918.965V38H917.453ZM918.965 31.313H921.476C921.884 31.313 922.256 31.214 922.592 31.016C922.934 30.812 923.204 30.539 923.402 30.197C923.606 29.849 923.708 29.459 923.708 29.027C923.708 28.589 923.606 28.199 923.402 27.857C923.204 27.509 922.934 27.236 922.592 27.038C922.256 26.834 921.884 26.732 921.476 26.732H918.965V31.313ZM926.769 38V29H928.281V30.125C928.599 29.705 929.001 29.372 929.487 29.126C929.973 28.874 930.501 28.748 931.071 28.748C931.419 28.748 931.755 28.793 932.079 28.883L931.467 30.395C931.221 30.317 930.981 30.278 930.747 30.278C930.297 30.278 929.883 30.389 929.505 30.611C929.133 30.827 928.836 31.121 928.614 31.493C928.392 31.865 928.281 32.279 928.281 32.735V38H926.769ZM936.688 38.234C935.86 38.234 935.104 38.021 934.42 37.595C933.742 37.169 933.199 36.599 932.791 35.885C932.389 35.165 932.188 34.37 932.188 33.5C932.188 32.84 932.305 32.225 932.539 31.655C932.773 31.079 933.094 30.575 933.502 30.143C933.916 29.705 934.396 29.363 934.942 29.117C935.488 28.871 936.07 28.748 936.688 28.748C937.516 28.748 938.269 28.961 938.947 29.387C939.631 29.813 940.174 30.386 940.576 31.106C940.984 31.826 941.188 32.624 941.188 33.5C941.188 34.154 941.071 34.766 940.837 35.336C940.603 35.906 940.279 36.41 939.865 36.848C939.457 37.28 938.98 37.619 938.434 37.865C937.894 38.111 937.312 38.234 936.688 38.234ZM936.688 36.722C937.252 36.722 937.759 36.575 938.209 36.281C938.665 35.981 939.022 35.588 939.28 35.102C939.544 34.61 939.676 34.076 939.676 33.5C939.676 32.912 939.541 32.372 939.271 31.88C939.007 31.388 938.65 30.995 938.2 30.701C937.75 30.407 937.246 30.26 936.688 30.26C936.124 30.26 935.617 30.41 935.167 30.71C934.717 31.004 934.36 31.397 934.096 31.889C933.832 32.381 933.7 32.918 933.7 33.5C933.7 34.1 933.835 34.646 934.105 35.138C934.375 35.624 934.738 36.011 935.194 36.299C935.65 36.581 936.148 36.722 936.688 36.722ZM944.19 42.5H942.678V29H944.19V30.539C944.496 30.011 944.904 29.585 945.414 29.261C945.924 28.931 946.53 28.766 947.232 28.766C947.886 28.766 948.498 28.889 949.068 29.135C949.644 29.381 950.148 29.723 950.58 30.161C951.012 30.593 951.351 31.094 951.597 31.664C951.843 32.234 951.966 32.846 951.966 33.5C951.966 34.154 951.843 34.769 951.597 35.345C951.351 35.921 951.012 36.428 950.58 36.866C950.148 37.298 949.644 37.637 949.068 37.883C948.498 38.129 947.886 38.252 947.232 38.252C946.53 38.252 945.924 38.09 945.414 37.766C944.904 37.436 944.496 37.007 944.19 36.479V42.5ZM947.214 30.233C946.632 30.233 946.122 30.38 945.684 30.674C945.246 30.968 944.907 31.361 944.667 31.853C944.433 32.345 944.316 32.894 944.316 33.5C944.316 34.1 944.433 34.649 944.667 35.147C944.907 35.645 945.243 36.041 945.675 36.335C946.113 36.629 946.626 36.776 947.214 36.776C947.796 36.776 948.33 36.632 948.816 36.344C949.302 36.05 949.692 35.657 949.986 35.165C950.28 34.667 950.427 34.112 950.427 33.5C950.427 32.9 950.283 32.354 949.995 31.862C949.707 31.364 949.32 30.968 948.834 30.674C948.348 30.38 947.808 30.233 947.214 30.233ZM957.378 38.234C956.55 38.234 955.794 38.021 955.11 37.595C954.432 37.169 953.889 36.599 953.481 35.885C953.079 35.165 952.878 34.37 952.878 33.5C952.878 32.84 952.995 32.225 953.229 31.655C953.463 31.079 953.784 30.575 954.192 30.143C954.606 29.705 955.086 29.363 955.632 29.117C956.178 28.871 956.76 28.748 957.378 28.748C958.056 28.748 958.677 28.886 959.241 29.162C959.811 29.432 960.297 29.81 960.699 30.296C961.107 30.782 961.41 31.346 961.608 31.988C961.812 32.63 961.887 33.317 961.833 34.049H954.489C954.561 34.559 954.729 35.015 954.993 35.417C955.257 35.813 955.593 36.128 956.001 36.362C956.415 36.596 956.874 36.716 957.378 36.722C957.918 36.722 958.407 36.584 958.845 36.308C959.283 36.026 959.637 35.642 959.907 35.156L961.446 35.516C961.086 36.314 960.543 36.968 959.817 37.478C959.091 37.982 958.278 38.234 957.378 38.234ZM954.444 32.861H960.312C960.264 32.357 960.102 31.898 959.826 31.484C959.55 31.064 959.199 30.728 958.773 30.476C958.347 30.224 957.882 30.098 957.378 30.098C956.874 30.098 956.412 30.221 955.992 30.467C955.572 30.713 955.224 31.046 954.948 31.466C954.678 31.88 954.51 32.345 954.444 32.861ZM963.35 38V29H964.862V30.125C965.18 29.705 965.582 29.372 966.068 29.126C966.554 28.874 967.082 28.748 967.652 28.748C968 28.748 968.336 28.793 968.66 28.883L968.048 30.395C967.802 30.317 967.562 30.278 967.328 30.278C966.878 30.278 966.464 30.389 966.086 30.611C965.714 30.827 965.417 31.121 965.195 31.493C964.973 31.865 964.862 32.279 964.862 32.735V38H963.35ZM974.586 30.512H972.543L972.534 38H971.022L971.031 30.512H969.483V29H971.031L971.022 26.174H972.534L972.543 29H974.586V30.512ZM982.153 29H983.755L978.832 42.5H977.23L978.859 38L975.628 29H977.284L979.615 35.921L982.153 29ZM993.88 38H992.35L989.335 29H990.811L993.133 35.867L995.428 29H996.985L999.289 35.867L1001.58 29H1003.08L1000.06 38H998.524L996.193 31.07L993.88 38ZM1004.54 29H1006.05V38H1004.54V29ZM1005.31 27.533C1005.07 27.533 1004.87 27.455 1004.71 27.299C1004.54 27.143 1004.46 26.948 1004.46 26.714C1004.46 26.48 1004.54 26.285 1004.71 26.129C1004.87 25.973 1005.07 25.895 1005.3 25.895C1005.53 25.895 1005.73 25.973 1005.89 26.129C1006.06 26.285 1006.14 26.48 1006.14 26.714C1006.14 26.948 1006.06 27.143 1005.89 27.299C1005.74 27.455 1005.54 27.533 1005.31 27.533ZM1012.87 30.512H1010.83L1010.82 38H1009.31L1009.32 30.512H1007.77V29H1009.32L1009.31 26.174H1010.82L1010.83 29H1012.87V30.512ZM1022.44 32.402V38H1020.93V32.735C1020.93 32.279 1020.82 31.865 1020.6 31.493C1020.37 31.121 1020.08 30.827 1019.7 30.611C1019.33 30.389 1018.92 30.278 1018.46 30.278C1018.01 30.278 1017.6 30.389 1017.22 30.611C1016.85 30.827 1016.55 31.121 1016.33 31.493C1016.11 31.865 1016 32.279 1016 32.735V38H1014.48V24.5H1016V30.125C1016.31 29.705 1016.72 29.372 1017.2 29.126C1017.69 28.874 1018.22 28.748 1018.79 28.748C1019.46 28.748 1020.07 28.913 1020.62 29.243C1021.18 29.567 1021.62 30.005 1021.95 30.557C1022.28 31.109 1022.44 31.724 1022.44 32.402ZM1028.56 38V25.4H1036.3V26.912H1030.08V30.494H1035.17V32.006H1030.08V36.488H1036.3V38H1028.56ZM1041.01 38.171C1040.53 38.153 1040.05 38.063 1039.59 37.901C1039.13 37.733 1038.73 37.508 1038.38 37.226C1038.04 36.938 1037.79 36.608 1037.64 36.236L1038.93 35.678C1039.02 35.882 1039.19 36.074 1039.42 36.254C1039.65 36.434 1039.92 36.578 1040.23 36.686C1040.54 36.794 1040.84 36.848 1041.16 36.848C1041.49 36.848 1041.8 36.797 1042.08 36.695C1042.37 36.593 1042.61 36.443 1042.79 36.245C1042.97 36.041 1043.06 35.798 1043.06 35.516C1043.06 35.216 1042.96 34.982 1042.76 34.814C1042.56 34.64 1042.31 34.505 1042 34.409C1041.7 34.307 1041.4 34.211 1041.08 34.121C1040.47 33.965 1039.91 33.779 1039.43 33.563C1038.94 33.341 1038.56 33.062 1038.28 32.726C1038 32.384 1037.86 31.949 1037.86 31.421C1037.86 30.863 1038.02 30.38 1038.32 29.972C1038.63 29.564 1039.04 29.249 1039.55 29.027C1040.05 28.805 1040.59 28.694 1041.17 28.694C1041.89 28.694 1042.55 28.85 1043.15 29.162C1043.75 29.474 1044.2 29.897 1044.5 30.431L1043.28 31.142C1043.18 30.926 1043.02 30.737 1042.81 30.575C1042.6 30.407 1042.36 30.275 1042.09 30.179C1041.82 30.083 1041.55 30.032 1041.26 30.026C1040.92 30.014 1040.59 30.059 1040.28 30.161C1039.98 30.263 1039.74 30.419 1039.55 30.629C1039.37 30.833 1039.28 31.088 1039.28 31.394C1039.28 31.694 1039.38 31.922 1039.57 32.078C1039.77 32.234 1040.03 32.36 1040.34 32.456C1040.66 32.546 1041 32.651 1041.37 32.771C1041.92 32.945 1042.43 33.146 1042.9 33.374C1043.38 33.602 1043.76 33.887 1044.05 34.229C1044.34 34.571 1044.48 34.994 1044.48 35.498C1044.48 36.05 1044.31 36.533 1043.98 36.947C1043.65 37.355 1043.22 37.667 1042.7 37.883C1042.17 38.099 1041.61 38.195 1041.01 38.171ZM1050.68 30.512H1048.64L1048.63 38H1047.12L1047.13 30.512H1045.58V29H1047.13L1047.12 26.174H1048.63L1048.64 29H1050.68V30.512ZM1059.3 29H1060.81V38H1059.3L1059.24 36.479C1058.96 37.001 1058.57 37.424 1058.07 37.748C1057.58 38.072 1056.99 38.234 1056.31 38.234C1055.65 38.234 1055.03 38.111 1054.45 37.865C1053.88 37.613 1053.37 37.268 1052.92 36.83C1052.48 36.386 1052.14 35.876 1051.9 35.3C1051.65 34.724 1051.53 34.103 1051.53 33.437C1051.53 32.795 1051.65 32.189 1051.89 31.619C1052.13 31.049 1052.46 30.551 1052.89 30.125C1053.32 29.693 1053.82 29.357 1054.38 29.117C1054.94 28.871 1055.55 28.748 1056.2 28.748C1056.91 28.748 1057.53 28.916 1058.06 29.252C1058.59 29.582 1059.03 30.011 1059.36 30.539L1059.3 29ZM1056.28 36.767C1056.87 36.767 1057.39 36.623 1057.82 36.335C1058.26 36.041 1058.59 35.645 1058.83 35.147C1059.07 34.649 1059.19 34.1 1059.19 33.5C1059.19 32.888 1059.07 32.336 1058.83 31.844C1058.59 31.346 1058.25 30.953 1057.81 30.665C1057.38 30.371 1056.87 30.224 1056.28 30.224C1055.68 30.224 1055.14 30.371 1054.66 30.665C1054.17 30.959 1053.79 31.355 1053.5 31.853C1053.22 32.345 1053.07 32.894 1053.07 33.5C1053.07 34.106 1053.22 34.658 1053.52 35.156C1053.81 35.648 1054.2 36.041 1054.69 36.335C1055.17 36.623 1055.7 36.767 1056.28 36.767ZM1067.28 30.512H1065.23L1065.22 38H1063.71L1063.72 30.512H1062.17V29H1063.72L1063.71 26.174H1065.22L1065.23 29H1067.28V30.512ZM1072.62 38.234C1071.79 38.234 1071.04 38.021 1070.35 37.595C1069.67 37.169 1069.13 36.599 1068.72 35.885C1068.32 35.165 1068.12 34.37 1068.12 33.5C1068.12 32.84 1068.24 32.225 1068.47 31.655C1068.71 31.079 1069.03 30.575 1069.43 30.143C1069.85 29.705 1070.33 29.363 1070.87 29.117C1071.42 28.871 1072 28.748 1072.62 28.748C1073.3 28.748 1073.92 28.886 1074.48 29.162C1075.05 29.432 1075.54 29.81 1075.94 30.296C1076.35 30.782 1076.65 31.346 1076.85 31.988C1077.05 32.63 1077.13 33.317 1077.08 34.049H1069.73C1069.8 34.559 1069.97 35.015 1070.24 35.417C1070.5 35.813 1070.84 36.128 1071.24 36.362C1071.66 36.596 1072.12 36.716 1072.62 36.722C1073.16 36.722 1073.65 36.584 1074.09 36.308C1074.53 36.026 1074.88 35.642 1075.15 35.156L1076.69 35.516C1076.33 36.314 1075.79 36.968 1075.06 37.478C1074.33 37.982 1073.52 38.234 1072.62 38.234ZM1069.69 32.861H1075.55C1075.51 32.357 1075.34 31.898 1075.07 31.484C1074.79 31.064 1074.44 30.728 1074.02 30.476C1073.59 30.224 1073.12 30.098 1072.62 30.098C1072.12 30.098 1071.65 30.221 1071.23 30.467C1070.81 30.713 1070.47 31.046 1070.19 31.466C1069.92 31.88 1069.75 32.345 1069.69 32.861ZM1078.47 29H1079.98V38H1078.47V29ZM1079.24 27.533C1079 27.533 1078.8 27.455 1078.64 27.299C1078.48 27.143 1078.4 26.948 1078.4 26.714C1078.4 26.48 1078.48 26.285 1078.64 26.129C1078.8 25.973 1079 25.895 1079.23 25.895C1079.47 25.895 1079.67 25.973 1079.83 26.129C1079.99 26.285 1080.07 26.48 1080.07 26.714C1080.07 26.948 1079.99 27.143 1079.83 27.299C1079.67 27.455 1079.48 27.533 1079.24 27.533ZM1090.06 32.402V38H1088.55V32.735C1088.55 32.279 1088.44 31.865 1088.22 31.493C1088 31.121 1087.7 30.827 1087.33 30.611C1086.96 30.389 1086.54 30.278 1086.09 30.278C1085.64 30.278 1085.22 30.389 1084.84 30.611C1084.47 30.827 1084.17 31.121 1083.95 31.493C1083.73 31.865 1083.62 32.279 1083.62 32.735V38H1082.11V29H1083.62V30.125C1083.94 29.705 1084.34 29.372 1084.83 29.126C1085.31 28.874 1085.84 28.748 1086.41 28.748C1087.08 28.748 1087.69 28.913 1088.25 29.243C1088.8 29.567 1089.24 30.005 1089.57 30.557C1089.9 31.109 1090.06 31.724 1090.06 32.402Z" fill="white"/>
<path d="M1102.3 38V25.4H1103.81V36.488H1109.45V38H1102.3ZM1114.52 38.234C1113.69 38.234 1112.94 38.021 1112.25 37.595C1111.57 37.169 1111.03 36.599 1110.62 35.885C1110.22 35.165 1110.02 34.37 1110.02 33.5C1110.02 32.84 1110.14 32.225 1110.37 31.655C1110.61 31.079 1110.93 30.575 1111.33 30.143C1111.75 29.705 1112.23 29.363 1112.77 29.117C1113.32 28.871 1113.9 28.748 1114.52 28.748C1115.2 28.748 1115.82 28.886 1116.38 29.162C1116.95 29.432 1117.44 29.81 1117.84 30.296C1118.25 30.782 1118.55 31.346 1118.75 31.988C1118.95 32.63 1119.03 33.317 1118.98 34.049H1111.63C1111.7 34.559 1111.87 35.015 1112.14 35.417C1112.4 35.813 1112.74 36.128 1113.14 36.362C1113.56 36.596 1114.02 36.716 1114.52 36.722C1115.06 36.722 1115.55 36.584 1115.99 36.308C1116.43 36.026 1116.78 35.642 1117.05 35.156L1118.59 35.516C1118.23 36.314 1117.69 36.968 1116.96 37.478C1116.23 37.982 1115.42 38.234 1114.52 38.234ZM1111.59 32.861H1117.45C1117.41 32.357 1117.24 31.898 1116.97 31.484C1116.69 31.064 1116.34 30.728 1115.92 30.476C1115.49 30.224 1115.02 30.098 1114.52 30.098C1114.02 30.098 1113.55 30.221 1113.13 30.467C1112.71 30.713 1112.37 31.046 1112.09 31.466C1111.82 31.88 1111.65 32.345 1111.59 32.861ZM1127.68 29H1129.19V38H1127.68L1127.61 36.479C1127.33 37.001 1126.94 37.424 1126.44 37.748C1125.95 38.072 1125.36 38.234 1124.68 38.234C1124.02 38.234 1123.4 38.111 1122.82 37.865C1122.25 37.613 1121.74 37.268 1121.29 36.83C1120.86 36.386 1120.51 35.876 1120.27 35.3C1120.02 34.724 1119.9 34.103 1119.9 33.437C1119.9 32.795 1120.02 32.189 1120.26 31.619C1120.5 31.049 1120.83 30.551 1121.26 30.125C1121.69 29.693 1122.19 29.357 1122.75 29.117C1123.32 28.871 1123.92 28.748 1124.57 28.748C1125.28 28.748 1125.9 28.916 1126.43 29.252C1126.97 29.582 1127.4 30.011 1127.73 30.539L1127.68 29ZM1124.65 36.767C1125.25 36.767 1125.76 36.623 1126.19 36.335C1126.63 36.041 1126.96 35.645 1127.2 35.147C1127.44 34.649 1127.56 34.1 1127.56 33.5C1127.56 32.888 1127.44 32.336 1127.2 31.844C1126.96 31.346 1126.62 30.953 1126.18 30.665C1125.75 30.371 1125.24 30.224 1124.65 30.224C1124.06 30.224 1123.52 30.371 1123.03 30.665C1122.55 30.959 1122.16 31.355 1121.87 31.853C1121.59 32.345 1121.45 32.894 1121.45 33.5C1121.45 34.106 1121.59 34.658 1121.89 35.156C1122.18 35.648 1122.57 36.041 1123.06 36.335C1123.54 36.623 1124.08 36.767 1124.65 36.767ZM1130.99 38V29H1132.5V30.125C1132.82 29.705 1133.22 29.372 1133.7 29.126C1134.19 28.874 1134.72 28.748 1135.29 28.748C1135.64 28.748 1135.97 28.793 1136.3 28.883L1135.68 30.395C1135.44 30.317 1135.2 30.278 1134.96 30.278C1134.51 30.278 1134.1 30.389 1133.72 30.611C1133.35 30.827 1133.05 31.121 1132.83 31.493C1132.61 31.865 1132.5 32.279 1132.5 32.735V38H1130.99ZM1145.39 32.402V38H1143.88V32.735C1143.88 32.279 1143.77 31.865 1143.55 31.493C1143.33 31.121 1143.03 30.827 1142.66 30.611C1142.29 30.389 1141.87 30.278 1141.42 30.278C1140.97 30.278 1140.55 30.389 1140.17 30.611C1139.8 30.827 1139.5 31.121 1139.28 31.493C1139.06 31.865 1138.95 32.279 1138.95 32.735V38H1137.44V29H1138.95V30.125C1139.27 29.705 1139.67 29.372 1140.16 29.126C1140.64 28.874 1141.17 28.748 1141.74 28.748C1142.41 28.748 1143.02 28.913 1143.58 29.243C1144.13 29.567 1144.57 30.005 1144.9 30.557C1145.23 31.109 1145.39 31.724 1145.39 32.402ZM1151.52 38L1153.96 25.4H1155.12L1158.52 34.346L1161.91 25.4H1163.07L1165.52 38H1163.98L1162.21 28.856L1159.01 37.316H1158.02L1154.82 28.856L1153.06 38H1151.52ZM1170.86 38.234C1170.03 38.234 1169.27 38.021 1168.59 37.595C1167.91 37.169 1167.37 36.599 1166.96 35.885C1166.56 35.165 1166.36 34.37 1166.36 33.5C1166.36 32.84 1166.48 32.225 1166.71 31.655C1166.94 31.079 1167.26 30.575 1167.67 30.143C1168.09 29.705 1168.57 29.363 1169.11 29.117C1169.66 28.871 1170.24 28.748 1170.86 28.748C1171.69 28.748 1172.44 28.961 1173.12 29.387C1173.8 29.813 1174.34 30.386 1174.75 31.106C1175.15 31.826 1175.36 32.624 1175.36 33.5C1175.36 34.154 1175.24 34.766 1175.01 35.336C1174.77 35.906 1174.45 36.41 1174.04 36.848C1173.63 37.28 1173.15 37.619 1172.6 37.865C1172.06 38.111 1171.48 38.234 1170.86 38.234ZM1170.86 36.722C1171.42 36.722 1171.93 36.575 1172.38 36.281C1172.84 35.981 1173.19 35.588 1173.45 35.102C1173.71 34.61 1173.85 34.076 1173.85 33.5C1173.85 32.912 1173.71 32.372 1173.44 31.88C1173.18 31.388 1172.82 30.995 1172.37 30.701C1171.92 30.407 1171.42 30.26 1170.86 30.26C1170.29 30.26 1169.79 30.41 1169.34 30.71C1168.89 31.004 1168.53 31.397 1168.27 31.889C1168 32.381 1167.87 32.918 1167.87 33.5C1167.87 34.1 1168.01 34.646 1168.28 35.138C1168.55 35.624 1168.91 36.011 1169.36 36.299C1169.82 36.581 1170.32 36.722 1170.86 36.722ZM1176.85 38V29H1178.36V30.125C1178.68 29.705 1179.08 29.372 1179.57 29.126C1180.05 28.874 1180.58 28.748 1181.15 28.748C1181.5 28.748 1181.83 28.793 1182.16 28.883L1181.55 30.395C1181.3 30.317 1181.06 30.278 1180.83 30.278C1180.38 30.278 1179.96 30.389 1179.58 30.611C1179.21 30.827 1178.91 31.121 1178.69 31.493C1178.47 31.865 1178.36 32.279 1178.36 32.735V38H1176.85ZM1186.77 38.234C1185.94 38.234 1185.18 38.021 1184.5 37.595C1183.82 37.169 1183.28 36.599 1182.87 35.885C1182.47 35.165 1182.27 34.37 1182.27 33.5C1182.27 32.84 1182.38 32.225 1182.62 31.655C1182.85 31.079 1183.17 30.575 1183.58 30.143C1183.99 29.705 1184.47 29.363 1185.02 29.117C1185.57 28.871 1186.15 28.748 1186.77 28.748C1187.44 28.748 1188.07 28.886 1188.63 29.162C1189.2 29.432 1189.69 29.81 1190.09 30.296C1190.5 30.782 1190.8 31.346 1191 31.988C1191.2 32.63 1191.28 33.317 1191.22 34.049H1183.88C1183.95 34.559 1184.12 35.015 1184.38 35.417C1184.65 35.813 1184.98 36.128 1185.39 36.362C1185.8 36.596 1186.26 36.716 1186.77 36.722C1187.31 36.722 1187.8 36.584 1188.23 36.308C1188.67 36.026 1189.03 35.642 1189.3 35.156L1190.83 35.516C1190.47 36.314 1189.93 36.968 1189.21 37.478C1188.48 37.982 1187.67 38.234 1186.77 38.234ZM1183.83 32.861H1189.7C1189.65 32.357 1189.49 31.898 1189.21 31.484C1188.94 31.064 1188.59 30.728 1188.16 30.476C1187.74 30.224 1187.27 30.098 1186.77 30.098C1186.26 30.098 1185.8 30.221 1185.38 30.467C1184.96 30.713 1184.61 31.046 1184.34 31.466C1184.07 31.88 1183.9 32.345 1183.83 32.861Z" fill="white"/>
<path d="M1101.22 39.125H1191.79V39.575H1101.22V39.125Z" fill="white"/>
<rect x="1856" y="15" width="32" height="32" rx="16" fill="white" fill-opacity="0.1"/>
<path d="M1866 37L1878 25M1866 25L1878 37" stroke="white" stroke-width="1.5" stroke-linecap="round" stroke-linejoin="round"/>
</g>
<path d="M1920 62H0V64H1920V62Z" fill="#262626" mask="url(#path-1-inside-1_60_3094)"/>
<defs>
<clipPath id="clip0_60_3094">
<path d="M0 0H1920V63H0V0Z" fill="white"/>
</clipPath>
<clipPath id="clip1_60_3094">
<rect width="1920" height="1282" fill="white" transform="translate(0 -610)"/>
</clipPath>
</defs>
</svg>
