<svg width="18" height="21" viewBox="0 0 18 21" fill="none" xmlns="http://www.w3.org/2000/svg">
<path fill-rule="evenodd" clip-rule="evenodd" d="M11.6152 0.0949212C11.9165 0.262864 12.0643 0.614596 11.9736 0.947333L9.98195 8.25H17.25C17.5487 8.25 17.8189 8.42718 17.9379 8.70108C18.0569 8.97499 18.0021 9.29341 17.7983 9.51173L7.29831 20.7617C7.06298 21.0139 6.68604 21.073 6.38481 20.9051C6.08357 20.7371 5.9357 20.3854 6.02644 20.0527L8.01808 12.75H0.750016C0.451369 12.75 0.181182 12.5728 0.062156 12.2989C-0.0568695 12.025 -0.00204775 11.7066 0.201725 11.4883L10.7017 0.238256C10.937 -0.0138767 11.314 -0.0730214 11.6152 0.0949212Z" fill="white"/>
</svg>
