<svg width="24" height="25" viewBox="0 0 24 25" fill="none" xmlns="http://www.w3.org/2000/svg">
<g clip-path="url(#clip0_102_9649)">
<path d="M12.0119 19.9597C9.01369 19.9597 6.01627 19.9597 3.01806 19.9597C2.71493 19.9597 2.57479 20.0984 2.57479 20.3977C2.57479 20.4752 2.57872 20.5527 2.574 20.6295C2.5677 20.7225 2.55825 20.8155 2.54093 20.9062C2.47637 21.2372 2.15907 21.5023 1.77957 21.4984C1.39849 21.4946 1.08277 21.2116 1.02529 20.8481C1.01191 20.7628 1.00482 20.6752 1.00482 20.5891C1.00403 18.8279 0.992223 17.0659 1.00876 15.3046C1.0182 14.2783 1.39771 13.3853 2.12521 12.6419C2.56691 12.1907 3.09207 11.8698 3.69282 11.6651C4.16522 11.5046 4.65338 11.4558 5.15098 11.4558C9.76246 11.4574 14.3739 11.4535 18.9854 11.4589C20.3365 11.4605 21.4309 11.9969 22.2419 13.0636C22.6403 13.5884 22.8781 14.1845 22.9592 14.8357C22.9867 15.055 22.9985 15.2783 22.9993 15.5C23.0025 17.2101 23.0017 18.9202 23.0009 20.6302C23.0009 20.8977 22.934 21.1411 22.7104 21.3178C22.4741 21.5046 22.2104 21.5535 21.9293 21.4395C21.66 21.3295 21.49 21.1271 21.4514 20.838C21.4317 20.6922 21.4341 20.5426 21.4301 20.3953C21.4238 20.1574 21.3238 20.0139 21.1239 19.9698C21.0798 19.9597 21.0333 19.9605 20.9876 19.9605C17.9965 19.9605 15.0054 19.9605 12.0135 19.9605L12.0119 19.9597Z" fill="#999999"/>
<path d="M11.903 4.5C13.8477 4.5 15.7916 4.5 17.7356 4.5C18.3867 4.5 18.9954 4.64341 19.5205 5.03953C20.1961 5.54884 20.5905 6.21938 20.6236 7.06124C20.6519 7.77519 20.6393 8.4907 20.6425 9.20543C20.6448 9.66589 20.6425 10.1264 20.6425 10.5868C20.6425 10.6279 20.6401 10.6713 20.6291 10.7109C20.5952 10.8357 20.5267 10.8853 20.3976 10.8612C20.2567 10.8349 20.1205 10.7783 19.9795 10.7628C19.6481 10.7271 19.3158 10.7023 18.9828 10.6853C18.7607 10.6736 18.6922 10.6341 18.6607 10.4194C18.56 9.73876 17.9198 9.12636 17.101 9.13566C16.1877 9.14574 15.2744 9.13798 14.3618 9.13798C13.6824 9.13798 13.1021 9.53643 12.8714 10.1643C12.8383 10.2543 12.8257 10.3519 12.8084 10.4465C12.7761 10.6163 12.7123 10.6798 12.5407 10.6822C12.1809 10.686 11.8203 10.686 11.4605 10.6822C11.2951 10.6806 11.2298 10.6163 11.1999 10.4279C11.1581 10.1636 11.0542 9.92791 10.8841 9.72093C10.5763 9.34574 10.1779 9.14186 9.68657 9.13953C8.74412 9.13488 7.80167 9.13721 6.85843 9.13876C6.06636 9.13953 5.44672 9.74884 5.34594 10.4178C5.31366 10.6341 5.24831 10.6721 5.02628 10.686C4.65859 10.7101 4.2909 10.7442 3.924 10.7829C3.8114 10.7946 3.70354 10.8426 3.59174 10.8612C3.47127 10.8806 3.41537 10.8403 3.38151 10.724C3.36813 10.6783 3.36183 10.6295 3.36183 10.5814C3.36104 9.47674 3.34608 8.37209 3.36498 7.26744C3.38466 6.11163 3.92714 5.26202 4.98849 4.74806C5.40893 4.54574 5.8648 4.5 6.32618 4.5C8.18511 4.5 10.044 4.5 11.903 4.5Z" fill="#999999"/>
</g>
<defs>
<clipPath id="clip0_102_9649">
<rect width="22" height="17" fill="white" transform="translate(1 4.5)"/>
</clipPath>
</defs>
</svg>
