<svg width="22" height="22" viewBox="0 0 22 22" fill="none" xmlns="http://www.w3.org/2000/svg">
<g clip-path="url(#clip0_102_9695)">
<path d="M1.27043 14.2616H11.111V16.0697H17.2625V14.2655H19.7064C19.8646 16.4158 19.8771 18.3304 17.6716 19.7897C17.6447 19.8075 17.623 19.8318 17.5633 19.885C17.8345 20.1103 18.1018 20.3329 18.3665 20.5529C18.0092 20.8945 17.7222 21.169 17.3932 21.4842C17.1029 21.1848 16.7889 20.8373 16.4467 20.5207C16.3462 20.4275 16.1683 20.3894 16.0224 20.3802C15.784 20.3657 15.5423 20.4045 15.302 20.4052C12.1067 20.4071 8.91145 20.4065 5.71554 20.4065C5.56251 20.4065 5.39897 20.436 5.25777 20.3933C4.83151 20.2653 4.56092 20.4629 4.3074 20.7684C4.09132 21.0284 3.84502 21.2629 3.61975 21.5007C3.31566 21.1808 3.04046 20.8918 2.73572 20.5707C2.93998 20.39 3.19941 20.1602 3.49102 19.9014C3.29004 19.7576 3.13964 19.6577 2.99712 19.5474C1.92919 18.7244 1.35187 17.6329 1.27634 16.2924C1.23891 15.6284 1.26977 14.9604 1.26977 14.2616H1.27043Z" fill="#999999"/>
<path d="M1.27554 9.28712C1.27029 9.16825 1.26109 9.06119 1.26109 8.95413C1.26044 7.21366 1.25847 5.47384 1.26109 3.73336C1.26372 1.82081 2.59108 0.486222 4.50101 0.500014C5.14203 0.504612 5.80275 0.491476 6.41882 0.636625C7.5117 0.894741 8.20001 1.65267 8.53235 2.7206C8.59671 2.92814 8.68012 3.02863 8.90803 3.09037C10.194 3.43912 11.0964 4.64104 11.1128 5.98219C11.1155 6.19827 11.1128 6.41435 11.1128 6.64882H5.02578C4.73548 5.11392 5.56959 3.52976 7.31335 3.0352C7.15573 2.35017 6.48121 1.7722 5.7732 1.74725C5.23792 1.7282 4.70067 1.72623 4.16539 1.74725C3.24261 1.78337 2.50044 2.63062 2.4965 3.64666C2.48994 5.39765 2.49453 7.14929 2.49453 8.90028C2.49453 9.01981 2.49453 9.13935 2.49453 9.28647H1.27423L1.27554 9.28712Z" fill="#999999"/>
<path d="M11.0936 13.0327C10.9648 13.0327 10.8683 13.0327 10.7718 13.0327C7.64415 13.0327 4.51589 13.0334 1.38828 13.0321C0.715079 13.0321 0.231029 12.7135 0.0609225 12.1697C-0.195223 11.3514 0.384717 10.5632 1.26875 10.5514C2.20926 10.5389 3.14978 10.5481 4.09029 10.5481C6.29971 10.5481 8.50847 10.5481 10.7179 10.5481C10.8361 10.5481 10.9543 10.5481 11.0936 10.5481V13.0321V13.0327Z" fill="#999999"/>
<path d="M16.0227 14.8711H12.3625C12.3565 14.7555 12.3467 14.6504 12.3467 14.5453C12.3454 13.2771 12.3454 12.0082 12.3467 10.7399C12.3473 9.82239 12.8485 9.31798 13.7621 9.31404C14.101 9.31272 14.4399 9.3055 14.7788 9.31601C15.54 9.34031 16.0372 9.85194 16.0391 10.6151C16.0431 11.9385 16.0404 13.2613 16.0391 14.5847C16.0391 14.6708 16.0299 14.7561 16.0227 14.8711Z" fill="#999999"/>
<path d="M17.2832 13.0209V10.5481C17.8782 10.5481 18.4648 10.5462 19.0506 10.5488C19.356 10.5501 19.668 10.5251 19.9668 10.5744C20.619 10.6821 21.0433 11.2161 21.0164 11.8394C20.9901 12.4508 20.5389 12.9756 19.8985 13.0091C19.0394 13.0544 18.1764 13.0203 17.2839 13.0203L17.2832 13.0209Z" fill="#999999"/>
</g>
<defs>
<clipPath id="clip0_102_9695">
<rect width="21.0171" height="21" fill="white" transform="translate(0 0.5)"/>
</clipPath>
</defs>
</svg>
