<svg width="20" height="20" viewBox="0 0 20 20" fill="none" xmlns="http://www.w3.org/2000/svg">
<path fill-rule="evenodd" clip-rule="evenodd" d="M4.55078 0.25C4.96499 0.25 5.30078 0.585786 5.30078 1V2.5H14.3008V1C14.3008 0.585786 14.6366 0.25 15.0508 0.25C15.465 0.25 15.8008 0.585786 15.8008 1V2.5H16.5508C18.2076 2.5 19.5508 3.84315 19.5508 5.5V16.75C19.5508 18.4069 18.2076 19.75 16.5508 19.75H3.05078C1.39393 19.75 0.0507812 18.4069 0.0507812 16.75V5.5C0.0507812 3.84315 1.39393 2.5 3.05078 2.5H3.80078V1C3.80078 0.585786 4.13657 0.25 4.55078 0.25ZM18.0508 9.25C18.0508 8.42157 17.3792 7.75 16.5508 7.75H3.05078C2.22235 7.75 1.55078 8.42157 1.55078 9.25V16.75C1.55078 17.5784 2.22235 18.25 3.05078 18.25H16.5508C17.3792 18.25 18.0508 17.5784 18.0508 16.75V9.25Z" fill="#999999"/>
</svg>
