<svg width="22" height="20" viewBox="0 0 22 20" fill="none" xmlns="http://www.w3.org/2000/svg">
<path d="M18.2057 1.70487C18.595 1.56331 18.7958 1.13299 18.6543 0.743714C18.5127 0.354439 18.0824 0.153621 17.6931 0.295176L5.19958 4.83828V1.00002C5.19958 0.585809 4.8638 0.250023 4.44958 0.250023H2.94958C2.53537 0.250023 2.19958 0.585809 2.19958 1.00002V5.92919L1.19312 6.29518C0.80384 6.43673 0.603023 6.86705 0.744578 7.25633C0.886132 7.6456 1.31646 7.84642 1.70573 7.70487L18.2057 1.70487Z" fill="#999999"/>
<path fill-rule="evenodd" clip-rule="evenodd" d="M2.21854 9.11455L17.1996 3.6669V7.0884L21.2057 8.54518C21.595 8.68673 21.7958 9.11705 21.6543 9.50633C21.5127 9.8956 21.0824 10.0964 20.6931 9.95487L20.1994 9.77534V18.25H20.9496C21.3638 18.25 21.6996 18.5858 21.6996 19C21.6996 19.4142 21.3638 19.75 20.9496 19.75H1.44958C1.03537 19.75 0.699585 19.4142 0.699585 19C0.699585 18.5858 1.03537 18.25 1.44958 18.25H2.19958V9.12135L2.21854 9.11455ZM17.1996 18.25V8.68449L18.6994 9.22989V18.25H17.1996ZM8.19958 12.25C7.78537 12.25 7.44958 12.5858 7.44958 13V17.5C7.44958 17.9142 7.78537 18.25 8.19958 18.25H11.1996C11.6138 18.25 11.9496 17.9142 11.9496 17.5V13C11.9496 12.5858 11.6138 12.25 11.1996 12.25H8.19958Z" fill="#999999"/>
</svg>
