<svg width="21" height="22" viewBox="0 0 21 22" fill="none" xmlns="http://www.w3.org/2000/svg">
<path fill-rule="evenodd" clip-rule="evenodd" d="M0 3.5C0 1.84315 1.34315 0.5 3 0.5H4.37163C5.232 0.5 5.98197 1.08556 6.19064 1.92025L7.29644 6.34343C7.47941 7.0753 7.20594 7.84555 6.60242 8.29818L5.3088 9.2684C5.17447 9.36915 5.14527 9.51668 5.183 9.61969C6.31851 12.7195 8.78051 15.1815 11.8803 16.317C11.9833 16.3547 12.1309 16.3255 12.2316 16.1912L13.2018 14.8976C13.6545 14.2941 14.4247 14.0206 15.1566 14.2036L19.5798 15.3094C20.4144 15.518 21 16.268 21 17.1284V18.5C21 20.1569 19.6569 21.5 18 21.5H15.75C7.05151 21.5 0 14.4485 0 5.75V3.5Z" fill="white"/>
</svg>
