<svg width="82" height="83" viewBox="0 0 82 83" fill="none" xmlns="http://www.w3.org/2000/svg">
<rect x="0.5" y="1" width="81" height="81" rx="40.5" stroke="url(#paint0_linear_104_11853)"/>
<rect x="0.5" y="1" width="81" height="81" rx="40.5" stroke="url(#paint1_linear_104_11853)"/>
<rect x="10.5" y="11" width="61" height="61" rx="30.5" stroke="url(#paint2_linear_104_11853)"/>
<rect x="10.5" y="11" width="61" height="61" rx="30.5" stroke="url(#paint3_linear_104_11853)"/>
<path d="M41 25.5625C34.5452 25.5625 29.3125 30.7952 29.3125 37.25C29.3125 41.5719 31.6589 45.3446 35.1423 47.3656C36.1134 47.9291 36.7215 48.7936 36.749 49.6636C36.7642 50.1435 37.0993 50.5536 37.5666 50.664C38.0644 50.7817 38.5716 50.8743 39.0869 50.9405C39.5454 50.9994 39.9378 50.6322 39.9378 50.17V43.5668C39.4854 43.5168 39.0422 43.4352 38.6104 43.324C38.0421 43.1778 37.7 42.5985 37.8463 42.0302C37.9926 41.4619 38.5718 41.1198 39.1401 41.2661C39.7334 41.4188 40.3565 41.5003 41.0003 41.5003C41.644 41.5003 42.2671 41.4188 42.8604 41.2661C43.4287 41.1198 44.008 41.4619 44.1542 42.0302C44.3005 42.5985 43.9584 43.1778 43.3901 43.324C42.9583 43.4352 42.5151 43.5168 42.0628 43.5668V50.1699C42.0628 50.6321 42.4552 50.9994 42.9136 50.9404C43.4287 50.8742 43.9358 50.7817 44.4334 50.664C44.9007 50.5536 45.2358 50.1435 45.251 49.6636C45.2785 48.7936 45.8866 47.9291 46.8577 47.3656C50.3411 45.3446 52.6875 41.5719 52.6875 37.25C52.6875 30.7952 47.4548 25.5625 41 25.5625Z" fill="#A685FA"/>
<path fill-rule="evenodd" clip-rule="evenodd" d="M36.7686 52.6912C36.878 52.1147 37.434 51.7359 38.0105 51.8453C38.9781 52.0288 39.9773 52.125 41 52.125C42.0227 52.125 43.0219 52.0288 43.9895 51.8453C44.566 51.7359 45.122 52.1147 45.2314 52.6912C45.3407 53.2677 44.962 53.8237 44.3855 53.9331C43.2881 54.1413 42.1563 54.25 41 54.25C39.8438 54.25 38.7119 54.1413 37.6145 53.9331C37.038 53.8237 36.6593 53.2677 36.7686 52.6912Z" fill="#A685FA"/>
<path fill-rule="evenodd" clip-rule="evenodd" d="M37.8183 56.154C37.8793 55.5703 38.4019 55.1467 38.9855 55.2078C39.6472 55.277 40.3193 55.3125 41 55.3125C41.6807 55.3125 42.3528 55.277 43.0145 55.2078C43.5981 55.1467 44.1207 55.5703 44.1817 56.154C44.2428 56.7376 43.8192 57.2602 43.2355 57.3212C42.5005 57.3981 41.7547 57.4375 41 57.4375C40.2453 57.4375 39.4995 57.3981 38.7645 57.3212C38.1808 57.2602 37.7572 56.7376 37.8183 56.154Z" fill="#A685FA"/>
<defs>
<linearGradient id="paint0_linear_104_11853" x1="6.75" y1="87" x2="85.75" y2="-5" gradientUnits="userSpaceOnUse">
<stop stop-color="#A685FA"/>
<stop offset="0.323723" stop-color="#A685FA" stop-opacity="0"/>
</linearGradient>
<linearGradient id="paint1_linear_104_11853" x1="81.75" y1="-10" x2="6.75" y2="82.5" gradientUnits="userSpaceOnUse">
<stop stop-color="#A685FA"/>
<stop offset="0.576615" stop-color="#A685FA" stop-opacity="0"/>
</linearGradient>
<linearGradient id="paint2_linear_104_11853" x1="3.25" y1="14" x2="71.75" y2="72.5" gradientUnits="userSpaceOnUse">
<stop stop-color="#A685FA"/>
<stop offset="0.323723" stop-color="#A685FA" stop-opacity="0"/>
</linearGradient>
<linearGradient id="paint3_linear_104_11853" x1="84.25" y1="86.5" x2="12.25" y2="35.5" gradientUnits="userSpaceOnUse">
<stop stop-color="#A685FA"/>
<stop offset="0.576615" stop-color="#A685FA" stop-opacity="0"/>
</linearGradient>
</defs>
</svg>
