<svg width="83" height="83" viewBox="0 0 83 83" fill="none" xmlns="http://www.w3.org/2000/svg">
<rect x="1" y="1" width="81" height="81" rx="40.5" stroke="url(#paint0_linear_104_11836)"/>
<rect x="1" y="1" width="81" height="81" rx="40.5" stroke="url(#paint1_linear_104_11836)"/>
<rect x="11" y="11" width="61" height="61" rx="30.5" stroke="url(#paint2_linear_104_11836)"/>
<rect x="11" y="11" width="61" height="61" rx="30.5" stroke="url(#paint3_linear_104_11836)"/>
<path fill-rule="evenodd" clip-rule="evenodd" d="M42.8647 27.7381C42.6922 27.5068 42.433 27.3556 42.1468 27.3193C41.8605 27.2829 41.5717 27.3646 41.3469 27.5455C38.6975 29.6773 36.8496 32.7701 36.3337 36.2956C35.4036 35.6214 34.5867 34.7998 33.9174 33.8653C33.7333 33.6082 33.4443 33.4464 33.1288 33.424C32.8134 33.4016 32.5044 33.5209 32.2858 33.7494C30.0965 36.0379 28.75 39.1438 28.75 42.5619C28.75 49.6036 34.4584 55.3119 41.5 55.3119C48.5416 55.3119 54.25 49.6036 54.25 42.5619C54.25 37.3757 51.1536 32.9149 46.713 30.9232C45.1417 30.1561 43.8441 29.0515 42.8647 27.7381ZM46.8125 44.6875C46.8125 47.6215 44.434 50 41.5 50C38.566 50 36.1875 47.6215 36.1875 44.6875C36.1875 44.1076 36.2804 43.5494 36.4522 43.027C37.3425 43.6852 38.3659 44.1737 39.4746 44.4447C39.7804 42.4603 40.7726 40.7023 42.2011 39.4209C44.8037 39.764 46.8125 41.9912 46.8125 44.6875Z" fill="#A685FA"/>
<defs>
<linearGradient id="paint0_linear_104_11836" x1="7.25" y1="87" x2="86.25" y2="-5" gradientUnits="userSpaceOnUse">
<stop stop-color="#A685FA"/>
<stop offset="0.323723" stop-color="#A685FA" stop-opacity="0"/>
</linearGradient>
<linearGradient id="paint1_linear_104_11836" x1="82.25" y1="-10" x2="7.25" y2="82.5" gradientUnits="userSpaceOnUse">
<stop stop-color="#A685FA"/>
<stop offset="0.576615" stop-color="#A685FA" stop-opacity="0"/>
</linearGradient>
<linearGradient id="paint2_linear_104_11836" x1="3.75" y1="14" x2="72.25" y2="72.5" gradientUnits="userSpaceOnUse">
<stop stop-color="#A685FA"/>
<stop offset="0.323723" stop-color="#A685FA" stop-opacity="0"/>
</linearGradient>
<linearGradient id="paint3_linear_104_11836" x1="84.75" y1="86.5" x2="12.75" y2="35.5" gradientUnits="userSpaceOnUse">
<stop stop-color="#A685FA"/>
<stop offset="0.576615" stop-color="#A685FA" stop-opacity="0"/>
</linearGradient>
</defs>
</svg>
