<svg width="22" height="16" viewBox="0 0 22 16" fill="none" xmlns="http://www.w3.org/2000/svg">
<path d="M22 5.70998C22.0495 4.27864 21.7365 2.858 21.09 1.57998C20.6514 1.05558 20.0427 0.701694 19.37 0.579984C16.5875 0.327509 13.7936 0.224028 11 0.269984C8.21667 0.221942 5.43274 0.322084 2.66003 0.569984C2.11185 0.669701 1.60454 0.926826 1.20003 1.30998C0.300027 2.13998 0.200027 3.55998 0.100027 4.75998C-0.045061 6.91755 -0.045061 9.08242 0.100027 11.24C0.128957 11.9154 0.229521 12.5858 0.400027 13.24C0.520602 13.745 0.76455 14.2123 1.11003 14.6C1.51729 15.0034 2.03641 15.2752 2.60003 15.38C4.75594 15.6461 6.92824 15.7564 9.10003 15.71C12.6 15.76 15.67 15.71 19.3 15.43C19.8775 15.3316 20.4112 15.0595 20.83 14.65C21.11 14.3699 21.3191 14.0271 21.44 13.65C21.7977 12.5526 21.9733 11.4041 21.96 10.25C22 9.68998 22 6.30998 22 5.70998ZM8.74003 10.85V4.65998L14.66 7.76998C13 8.68998 10.81 9.72998 8.74003 10.85Z" fill="white"/>
</svg>
